<svg
  width="192"
  height="104"
  viewBox="0 0 192 104"
  fill="none"
  xmlns="http://www.w3.org/2000/svg"
>
  <g clip-path="url(#clip0_7_2)">
    <path d="M0 4H34.375L78.125 104H46.875L0 4Z" fill="#00AAFF" />
    <path d="M65.625 4H100L78.125 104H46.875L65.625 4Z" fill="#FF0080" />
    <path d="M56.25 54L78.125 104H46.875L56.25 54Z" fill="#000080" />
    <path
      d="M84.78 40.2801C85.32 32.1801 88.065 25.1151 93.015 19.0851C97.965 13.0551 104.58 8.42006 112.86 5.18006C121.14 1.94007 130.41 0.320068 140.67 0.320068C150.3 0.320068 158.805 1.80507 166.185 4.77507C173.565 7.65507 179.28 11.7051 183.33 16.9251C187.38 22.1451 189.405 28.1301 189.405 34.8801C189.405 40.1901 187.875 45.1401 184.815 49.7301C181.755 54.3201 177.075 58.7301 170.775 62.9601C164.565 67.1901 156.465 71.3751 146.475 75.5151L122.58 85.5051L122.31 77.0001H191.97V104H87.75V80.2401L131.49 56.8851C138.06 53.3751 142.92 50.5851 146.07 48.5151C149.31 46.4451 151.56 44.5551 152.82 42.8451C154.17 41.1351 154.845 39.2001 154.845 37.0401C154.845 34.8801 154.215 33.0351 152.955 31.5051C151.785 29.8851 150.03 28.6701 147.69 27.8601C145.35 26.9601 142.56 26.5101 139.32 26.5101C132.93 26.5101 128.115 27.8151 124.875 30.4251C121.635 32.9451 119.79 36.2301 119.34 40.2801H84.78Z"
      fill="#00AAFF"
    />
    <g style="mix-blend-mode: multiply">
      <path
        d="M92.0635 40.2803H84.7803C85.3203 32.1803 88.0647 25.1149 93.0146 19.085C94.4597 17.3246 96.0475 15.6837 97.7764 14.1611L92.0635 40.2803Z"
        fill="#000080"
      />
    </g>
  </g>
  <defs>
    <clipPath id="clip0_7_2">
      <rect width="192" height="104" fill="white" />
    </clipPath>
  </defs>
</svg>
